/* XPM */
static char *_6b576a0b1074983caaf467ca26e6e2daLpdL6m11m4LzY0S[] = {
/* columns rows colors chars-per-pixel */
"12 16 18 1",
"  c None",
". c black",
"X c #130F30",
"o c #6A6B04",
"O c #00424A",
"+ c gray39",
"@ c #B53121",
"# c #B13425",
"$ c #9C4A00",
"% c #3A8400",
"& c #E69C21",
"* c #E39D25",
"= c #007B8C",
"- c gray68",
"; c #F7D6A4",
": c #B5EFEF",
"> c #FFCEC5",
", c white",
/* pixels */
"   #####    ",
"  ######### ",
"  ooo**o*   ",
" o*o***o*** ",
" o*oo***o***",
" oo****oooo ",
"   *******  ",
"  oo#ooo    ",
" ooo#oo#ooo ",
"oooo####oooo",
"**o#*##*#o**",
"***######***",
"**########**",
"  ###  ###  ",
" ooo    ooo ",
"oooo    oooo",
};
