/* XPM */
static char *sol[] = {
/* columns rows colors chars-per-pixel */
"16 16 34 1 ",
"  c None",
". c black",
"X c #010000",
"o c #010101",
"O c gray2",
"+ c #522100",
"@ c #104C00",
"# c gray39",
"$ c #AE2F28",
"% c #9C4A00",
"& c #E75A10",
"* c #B5217B",
"= c #109400",
"- c #249700",
"; c #249707",
": c #E69C21",
"> c #E79C21",
", c #E09E2A",
"< c #8CD600",
"1 c #FFA542",
"2 c #007B8C",
"3 c #257B8A",
"4 c #267B8B",
"5 c #4242FF",
"6 c #FF6BCE",
"7 c #6B8CFF",
"8 c #63ADFF",
"9 c gray68",
"0 c #BFF8AD",
"q c #BFF9AD",
"w c #F7D6B5",
"e c #BBEFEE",
"r c #FFCEC6",
"t c white",
/* pixels */
"%rrrrrrrr.%rrrr%",
"r%%%%%%%%.r%%%%.",
"r%%%%%%%%.r%%%%.",
"r%%%%%%%%.r%%%%.",
"r%%%%%%%%.r.%%%.",
"r%%%%%%%%.%.....",
"r%%%%%%%%.rrrrr.",
"r%%%%%%%%.r%%%%.",
"r%%%%%%%%.r%%%%.",
"r%%%%%%%%.r%%%%.",
"..%%%%%%.r%%%%%.",
"rr..%%%%.r%%%%%.",
"r%rr....r%%%%%%.",
"r%%%rrr.r%%%%%%.",
"r%%%%%%.r%%%%%..",
"%......%r.......",
};
