/* XPM */
static char *sol[] = {
/* columns rows colors chars-per-pixel */
"22 23 70 1 ",
"  c black",
". c #0C0600",
"X c #150A00",
"o c #170D05",
"O c #1F0F00",
"+ c #151111",
"@ c #271300",
"# c #2F1600",
"$ c #2D1807",
"% c #341900",
"& c #3B1C00",
"* c #3E1E00",
"= c #281A11",
"- c #221B1A",
"; c #3A210C",
": c #302725",
"> c #352823",
", c #332928",
"< c #411F00",
"1 c #492300",
"2 c #582A00",
"3 c #5C2C00",
"4 c #402919",
"5 c #723600",
"6 c #7F3C00",
"7 c #473125",
"8 c #4C3323",
"9 c #503728",
"0 c #443735",
"q c #50403E",
"w c #794B28",
"e c #764F35",
"r c #554542",
"t c #604D4A",
"y c #6D534A",
"u c #823E00",
"i c #853F00",
"p c #9C4A00",
"a c #9E4C03",
"s c #874C1A",
"d c #A15009",
"f c #A2520C",
"g c #A85B19",
"h c #A95C1A",
"j c #925B34",
"k c #AD6021",
"l c #AF6325",
"z c #B06428",
"x c #B66D35",
"c c #B56E38",
"v c #B77545",
"b c #8B6D63",
"n c #AB7F6B",
"m c #C17C4A",
"M c #C78457",
"N c #C9865A",
"B c #CA885C",
"V c #CD8B62",
"C c #D1906A",
"Z c #D4946F",
"A c #CD977E",
"S c #D79977",
"D c #AB8881",
"F c #BF9B95",
"G c #DEA284",
"H c #CCA59E",
"J c #E0A588",
"K c #F2BCAC",
"L c #EEC0B9",
"P c #FFCEC6",
/* pixels */
"pCPPPPPPPPPPP,%pKPPPPP",
"ZVMMMMMMMMMMM=7ZNMMMMM",
"PBpppppppppppOrPhppppp",
"PBpppppppppppOrPhppppp",
"PBpppppppppppOrPhppppp",
"PBpppppppppppOrPsipppp",
"PBpppppppppppOrP-*pppp",
"PBpppppppppppO;lo.OOOO",
"PBpppppppppppO4myttttt",
"PBpppppppppppOrPPPPPPP",
"PBpppppppppppOrPlfffff",
"PBpppppppppppOrPhppppp",
"PBpppppppppppOrPhppppp",
"PBpppppppppppOrPhppppp",
"t8<ppppppppu&bnmdppppp",
"::>66uppppp5 HGppppppp",
"PPL  Xppppp5 HGppppppp",
"PScFFD@@@@@9Fvkppppppp",
"PBdJJAqqqq+0Pzpppppppp",
"PBppphPPPP00Pzpppppppp",
"PBpppagggg$0Pzpppppp3X",
"Zj222222221ePw222222# ",
"p1        5xP,        "
};
