/* XPM */
static char *test[] = {
/* columns rows colors chars-per-pixel */
"24 32 4 1 ",
"  c None",
". c #6A6B04",
"X c #B13425",
"o c #E39D25",
/* pixels */
"      XXXXXXXXXX        ",
"      XXXXXXXXXX        ",
"    XXXXXXXXXXXXXXXXXX  ",
"    XXXXXXXXXXXXXXXXXX  ",
"    ......oooo..oo      ",
"    ......oooo..oo      ",
"  ..oo..oooooo..oooooo  ",
"  ..oo..oooooo..oooooo  ",
"  ..oo....oooooo..oooooo",
"  ..oo....oooooo..oooooo",
"  ....oooooooo........  ",
"  ....oooooooo........  ",
"      oooooooooooooo    ",
"      oooooooooooooo    ",
"    ....XX......        ",
"    ....XX......        ",
"  ......XX....XX......  ",
"  ......XX....XX......  ",
"........XXXXXXXX........",
"........XXXXXXXX........",
"oooo..XXooXXXXooXX..oooo",
"oooo..XXooXXXXooXX..oooo",
"ooooooXXXXXXXXXXXXoooooo",
"ooooooXXXXXXXXXXXXoooooo",
"ooooXXXXXXXXXXXXXXXXoooo",
"ooooXXXXXXXXXXXXXXXXoooo",
"    XXXXXX    XXXXXX    ",
"    XXXXXX    XXXXXX    ",
"  ......        ......  ",
"  ......        ......  ",
"........        ........",
"........        ........"
};
