/* XPM */
static char *test[] = {
/* columns rows colors chars-per-pixel */
"40 40 180 2 ",
"   c #010000",
".  c #0B0400",
"X  c #0B0909",
"o  c #110700",
"O  c #160A00",
"+  c #1B0D02",
"@  c #130D0B",
"#  c #1E120C",
"$  c #191516",
"%  c #240F00",
"&  c #251001",
"*  c #2C1401",
"=  c #2E1805",
"-  c #22140C",
";  c #351700",
":  c #3D1B00",
">  c #321B0A",
",  c #351C07",
"<  c #261911",
"1  c #2A1C14",
"2  c #251D1C",
"3  c #2B211D",
"4  c #33241C",
"5  c #392618",
"6  c #231F21",
"7  c #2B2322",
"8  c #312623",
"9  c #342927",
"0  c #372A26",
"q  c #3D3334",
"w  c #451E00",
"e  c #472000",
"r  c #4B2200",
"t  c #49260A",
"y  c #502500",
"u  c #5D2B00",
"i  c #562E0E",
"p  c #472B17",
"a  c #58351B",
"s  c #632C00",
"d  c #6B3201",
"f  c #6A3508",
"g  c #7C3A00",
"h  c #763B09",
"j  c #613510",
"k  c #613819",
"l  c #723D12",
"z  c #413129",
"x  c #533929",
"c  c #553621",
"v  c #453632",
"b  c #463C3C",
"n  c #4A3D3E",
"m  c #7A4419",
"M  c #574136",
"N  c #5D473E",
"B  c #63432F",
"V  c #6A4021",
"C  c #684733",
"Z  c #534443",
"A  c #654E46",
"S  c #6E5348",
"D  c #70564F",
"F  c #765D55",
"G  c #675656",
"H  c #7B615A",
"J  c #7B6563",
"K  c #7E696A",
"L  c #7D6866",
"P  c #843E00",
"I  c #874000",
"U  c #8C4200",
"Y  c #8A460D",
"T  c #874308",
"R  c #954500",
"E  c #994600",
"W  c #DC5918",
"Q  c #9F4D09",
"!  c #904F1A",
"~  c #94521B",
"^  c #A04C00",
"/  c #A14F0B",
"(  c #A65612",
")  c #A2591E",
"_  c #AB5D1D",
"`  c #A85815",
"'  c #804E28",
"]  c #884E21",
"[  c #8E5221",
"{  c #995621",
"}  c #8D5932",
"|  c #875A3E",
" . c #AC5E21",
".. c #A75D21",
"X. c #9F6336",
"o. c #AE6021",
"O. c #AE6328",
"+. c #B06121",
"@. c #B26629",
"#. c #B3692E",
"$. c #A66433",
"%. c #B56C34",
"&. c #B46E3A",
"*. c #BD733C",
"=. c #C1763F",
"-. c #C4783F",
";. c #8C5F42",
":. c #8D6044",
">. c #906245",
",. c #A16D4B",
"<. c #BB7645",
"1. c #AE7653",
"2. c #B57A55",
"3. c #BA7D55",
"4. c #826B69",
"5. c #8A6C63",
"6. c #8D7068",
"7. c #9A7669",
"8. c #9A7465",
"9. c #9F7D73",
"0. c #967A78",
"q. c #AB7F6A",
"w. c #C27A46",
"e. c #BC8669",
"r. c #A78176",
"t. c #AD8679",
"y. c #B88A76",
"u. c #B68976",
"i. c #C4855F",
"p. c #C88557",
"a. c #CE8D64",
"s. c #CA8E6A",
"d. c #D18E65",
"f. c #D59269",
"g. c #D9946B",
"h. c #D49167",
"j. c #C89379",
"k. c #C39078",
"l. c #DF9E7A",
"z. c #D19473",
"x. c #AC8C89",
"c. c #AD8B83",
"v. c #B18E88",
"b. c #B2918C",
"n. c #BC968E",
"m. c #B59492",
"M. c #C19586",
"N. c #CC9E8F",
"B. c #CF9B84",
"V. c #DBA38B",
"C. c #CCA39B",
"Z. c #D5A99D",
"A. c #D7A798",
"S. c #E3A78B",
"D. c #E3A88C",
"F. c #E6A889",
"G. c #E3AB93",
"H. c #EDAF92",
"J. c #E2AD99",
"K. c #E5B19F",
"L. c #EDB196",
"P. c #D6ACA5",
"I. c #DAADA2",
"U. c #D9AFA8",
"Y. c #DBB0A7",
"T. c #E6B2A1",
"R. c #EAB5A4",
"E. c #ECB8A8",
"W. c #F1BCAB",
"Q. c #F3B9A0",
"!. c #ECBDB2",
"~. c #F8C2AF",
"^. c #F6C2B2",
"/. c #F8C4B6",
"(. c #EFC6C2",
"). c #FDCDC3",
"_. c #FFD2CC",
"`. c #FFD4CF",
"'. c #FFD2CC",
"]. c #FFD6D1",
/* pixels */
"R _ a.W.`.`.`.'.'.'.'.'.'.'.'.'.'.'.`.`.`.U.J 7 & s ) d.W.].`.`.'.`.`.`.W.d.o.W ",
"_ %.a.G.W.W.W.W.W.W.W.W.W.W.W.W.W.W.W.W.W.N.F 3 = l $.d.G.W.W.W.W.W.W.W.G.3.~ P ",
"a.a.a.a.d.d.a.a.a.a.a.a.a.a.a.a.a.a.a.d.d.1.B 1 5 ;.i.d.a.d.d.a.a.a.d.d.3.} j r ",
"W.G.a.%. . . . . . . . . . . . . . . .o.o.! t - v r.V.h.%. . . . . .o.o.~ j = O ",
"`.W.d. .R E E E E E E E E E E E E E E W W P w - n m.T.h. .E E E E E W W P e O   ",
"`.W.d. .E E E E E E E E E E E E E E E W W P w - n m.T.h. .E E E E E W W P r O   ",
"`.W.a. .E E E E E E E E E E E E E E W W W P e - n b.T.h.o.E E E E W W W P r O   ",
"'.W.a. .E E E W W W W W W W W W W W W W ^ P e - b b.K.h.+.W E E W W W ^ P r O   ",
"'.W.a. .E E E W W W W W W W W W W W W W ^ P e - n b.T.f...R E E W W W ^ P r O   ",
"'.W.a. .E E W W W W W W W W W W W W W W ^ P e - n m.Y.e.] g U E W W ^ ^ P r O   ",
"'.W.a. .E E E W W W W W W W W W W W W W ^ P e - n m.P.7.c r g E ^ ^ ^ ^ I y O   ",
"'.W.a. .E E E W W W W W W W W W W W W W ^ P e - v r.M.H 4 & u g P P P P d w O   ",
"'.W.a. .E E E W W W W W W W W W W W W W ^ P e & 5 >.,.B # . * w e e e e : % .   ",
"'.W.a. .E E E W W W W W W W W W W W W W W P e + > m [ k < @ @ - - - - - # X     ",
"'.W.a. .E E E W W W W W W W W W W W W W W P e + 5 ' X.| N n b n n n n n q 2 X   ",
"'.W.a. .E E E W W W W W W W W W W W W W ^ P e - z 8.B.C.n.b.b.b.b.b.m.m.0.Z $   ",
"'.W.a. .E E E W W W W W W W W W W W W W ^ P w # b c.!.^.E.K.K.K.K.T.R.R.M.D 2   ",
"'.W.a. .E E E W W W W W W W W W W W W W ^ P w - b b.!.Q.l.h.h.h.h.h.g.g.2.C #   ",
"'.W.a. .E E E W W W W W W W W W W W W W ^ P e - n b.R.l.*. . . .o.o.o.o.~ i +   ",
"'.W.a. .E E E W W W W W W W W W W W W W ^ P e - n b.K.h._ R E E E E W W P r O   ",
"'.W.a. .E E E W W W W W W W W W W W W W ^ P e - b b.K.h. .E E E E E W W P r O   ",
"`.W.d. .E E E W W W W W W W W W W W W W ^ P w # b b.T.h. .E E E W W W W P r O   ",
"].^.h.+.W E E W W W W W W W W W W W W W ^ P w # b m.T.g.o.E E E W W W ^ P r O   ",
"(.T.i.) R E E W W W W W W W W W W W W E E g r 1 Z b.J.d._ E E E W W W ^ P r O   ",
"b.r.;.m g U E W W W W W W W W W W W E R g f a M F u.z.w.` E E E W W W ^ P r O   ",
"b v 5 , r g E ^ W W W W W W W W W W R g r p S 9.y.3.%._ / E W W W W W ^ P r O   ",
"9 8 7 4 p f g P P I R W W W W W W ^ R d * 3 J C.D.<.( W W E W W W W W ^ P r O   ",
"H J L J S a r w e s P W ^ ^ ^ ^ ^ ^ R d % 2 K U.L.=./ R E W W W W W W ^ P r O   ",
"U.U.U.C.9.M 1 # - t h U R R R R R R U d > 9 4.Z.F.*./ E E W W W W W W ^ P r O   ",
"`.).~.G.y.F Z b n x j d d d d d d d d j x A 7.j.d.@.Q E E W W W W W W ^ P r O   ",
"`./.F.p.2.q.v.m.x.5.x > % * * * * & > x 5.t.e.<.@.( W E W W W W W W W ^ P r O   ",
"`.W.d.#.%.s.J.E.A.t.A 9 2 7 7 7 2 @ @ n x.A.f.O.Q W W W W W W W W W W ^ P r O   ",
"'.W.a._ ` w.d.g.f.e.7.4.L K K K G 9 $ n m.R.g._ E E E W W W W W W W W ^ I r O   ",
"`.W.a._ W ( _  .@.<.j.A.P.P.P.P.v.A 7 b b.T.h. .E E E W W W W W W W E E g e O   ",
"`.W.d. .E E E E / @.d.F.H.H.H.H.k.S 3 b b.K.h.o.W W W W W W W W W E R g u ; o   ",
"`.W.d.o.W E E E W ( @.*.*.=.-.-.$.a < b b.K.h.o.W W W ^ ^ ^ ^ ^ ^ E g y * o     ",
"W.D.3.~ P P P P P P T Y Y Y Y Y h r > N n.K.s.{ P P P P P P P P I g s * o       ",
"d.3.} j e r r r r e e e e e e e w w i | N.I.q.V e e e r r r r r r e ; o         ",
"o.~ j = O O O O O O O O O O O O & e h &.D.Z.6.0 O O O O O O O O O O o           ",
"W P r O                         O e Y -.H.Z.L 6                                 "
};
